PathFileType	4	(X/Y/Z)	/Users/itak/Documents/Research/Walk-IL/dataset/trc/00038_00004.trc
DataRate	CameraRate	NumFrames	NumMarkers	Units	OrigDataRate	OrigDataStartFrame	OrigNumFrames
100.000000	100.000000	4	53	mm	100.000000	131	524
Frame#	Time	RPSI			LPSI			L3			STRN			T10			C7			CLAV			RBAK			LBAK			LSHO			LUPA			LAEL			LAOL			LWTS			LWPS			LFRA			LIFD			LHPS			LHTS			RSHO			RUPA			RAEL			RAOL			RWTS			RWPS			RFRA			RIFD			RHTS			RHPS			RBHD			LFHD			RFHD			LBHD			LHIP			RHIP			RASI			LASI			LKNE			LTHI			LANK			LTIP			LTOE			LMT1			LMT5			LHEE			RKNE			RTHI			RANK			RTIP			RTOE			RMT1			RMT5			RHEE			
		X1	Y1	Z1	X2	Y2	Z2	X3	Y3	Z3	X4	Y4	Z4	X5	Y5	Z5	X6	Y6	Z6	X7	Y7	Z7	X8	Y8	Z8	X9	Y9	Z9	X10	Y10	Z10	X11	Y11	Z11	X12	Y12	Z12	X13	Y13	Z13	X14	Y14	Z14	X15	Y15	Z15	X16	Y16	Z16	X17	Y17	Z17	X18	Y18	Z18	X19	Y19	Z19	X20	Y20	Z20	X21	Y21	Z21	X22	Y22	Z22	X23	Y23	Z23	X24	Y24	Z24	X25	Y25	Z25	X26	Y26	Z26	X27	Y27	Z27	X28	Y28	Z28	X29	Y29	Z29	X30	Y30	Z30	X31	Y31	Z31	X32	Y32	Z32	X33	Y33	Z33	X34	Y34	Z34	X35	Y35	Z35	X36	Y36	Z36	X37	Y37	Z37	X38	Y38	Z38	X39	Y39	Z39	X40	Y40	Z40	X41	Y41	Z41	X42	Y42	Z42	X43	Y43	Z43	X44	Y44	Z44	X45	Y45	Z45	X46	Y46	Z46	X47	Y47	Z47	X48	Y48	Z48	X49	Y49	Z49	X50	Y50	Z50	X51	Y51	Z51	X52	Y52	Z52	X53	Y53	Z53	

132	1.31	-1210.601196289062	1081.092529296875	107.7688980102539	-1217.992797851562	1068.72900390625	-56.05389404296875	-1219.2470703125	1129.200561523438	15.06211471557617	-1001.487670898438	1323.575317382812	11.52584362030029	-1248.004638671875	1273.31201171875	6.647224903106689	-1199.957275390625	1541.051147460938	-10.5170259475708	-1042.36279296875	1449.498901367188	2.479813098907471	-1253.995239257812	1406.15966796875	71.79308319091797	-1215.830688476562	1496.495361328125	-107.6035385131836	-1112.019165039062	1502.436279296875	-180.0316467285156	-1136.207153320312	1371.57373046875	-251.7078552246094	-1122.232666015625	1151.720581054688	-267.0735473632812	-1176.132080078125	1140.394409179688	-175.9865417480469	-1027.412475585938	903.2922973632812	-204.3816070556641	-1104.265014648438	886.3092651367188	-245.7344512939453	-1106.225463867188	1036.498046875	-268.8422546386719	-994.7633056640625	722.5885620117188	-178.6793212890625	-1068.63623046875	796.8381958007812	-241.7704315185547	-1004.423095703125	809.7304077148438	-213.2952117919922	-1131.367065429688	1531.347412109375	168.4227142333984	-1147.418090820312	1461.100463867188	239.975830078125	-1176.9619140625	1190.756958007812	264.4034729003906	-1171.3798828125	1163.0166015625	168.0730590820312	-1044.398315429688	931.8593139648438	242.7940521240234	-1111.440185546875	918.116943359375	304.6777648925781	-1163.609252929688	1115.201416015625	280.9799499511719	-1030.490112304688	750.9276733398438	227.1562042236328	-1009.751953125	824.2015991210938	261.4204406738281	-1068.242431640625	819.3984985351562	308.7929382324219	-1148.848388671875	1726.005859375	-68.64661407470703	-961.5491943359375	1735.657592773438	43.23472213745117	-968.0848388671875	1736.272705078125	-55.0196647644043	-1133.226196289062	1722.769409179688	75.33736419677734	-1126.06103515625	961.5697021484375	-165.2809600830078	-1098.047973632812	965.9584350585938	207.8922882080078	-997.4512939453125	997.5451049804688	130.5486297607422	-1008.905334472656	1008.568908691406	-104.3356246948242	-1086.647338867188	519.0011596679688	-101.0203170776367	-1107.299682617188	652.923583984375	-141.75048828125	-1191.077880859375	42.63973999023438	-85.01209259033203	-1169.77685546875	286.9570922851562	-111.5199356079102	-974.5947265625	40.6988639831543	-14.20834541320801	-1033.732055664062	49.82364654541016	0.6005690693855286	-1067.097290039062	41.63477325439453	-101.399787902832	-1261.447875976562	51.32284164428711	-34.55940628051758	-1094.817993164062	529.6212768554688	166.4654541015625	-1074.92431640625	797.058837890625	208.3011474609375	-1207.217407226562	46.77910614013672	152.9796600341797	-1119.977661132812	407.3078918457031	169.3047637939453	-974.8153076171875	45.5853271484375	114.6459197998047	-1037.8291015625	52.59945678710938	84.68443298339844	-1057.722412109375	44.84529876708984	177.0649566650391	-1260.677001953125	46.95374298095703	107.0112075805664	
133	1.32	-1210.137084960938	1081.327392578125	107.0176620483398	-1217.526733398438	1068.830932617188	-56.75417709350586	-1218.812744140625	1129.330810546875	14.31300926208496	-1000.734436035156	1323.45556640625	10.74349594116211	-1247.40234375	1273.481567382812	5.849292755126953	-1199.00439453125	1541.149780273438	-11.42629814147949	-1041.571533203125	1449.452392578125	1.607660531997681	-1253.24072265625	1406.370361328125	70.93074798583984	-1214.940795898438	1496.542724609375	-108.5080490112305	-1111.15283203125	1502.344482421875	-180.9485931396484	-1135.49658203125	1371.505249023438	-252.5600891113281	-1121.938232421875	1151.642700195312	-267.927001953125	-1175.776123046875	1140.40576171875	-176.7986145019531	-1027.5126953125	903.0700073242188	-205.2434234619141	-1104.334594726562	886.1993408203125	-246.5575561523438	-1106.13671875	1036.392578125	-269.6999816894531	-994.8846435546875	722.421142578125	-179.5437622070312	-1068.884399414062	796.6757202148438	-242.6122131347656	-1004.659729003906	809.5092163085938	-214.1927642822266	-1130.428588867188	1531.491088867188	167.4844818115234	-1146.488525390625	1461.284423828125	239.1169128417969	-1176.2060546875	1190.94970703125	263.6568908691406	-1170.745727539062	1163.180297851562	167.30322265625	-1043.820556640625	931.9028930664062	242.0158233642578	-1110.86865234375	918.2890014648438	303.9599914550781	-1162.9365234375	1115.397338867188	280.2213134765625	-1029.996948242188	751.063232421875	226.4819488525391	-1009.222229003906	824.3448486328125	260.7344360351562	-1067.764892578125	819.5274658203125	308.0469970703125	-1146.855834960938	1725.982421875	-70.54362487792969	-960.8368530273438	1735.536865234375	43.36177444458008	-966.2427978515625	1735.857299804688	-54.98676681518555	-1132.836669921875	1723.090576171875	73.57765960693359	-1125.593872070312	961.4808959960938	-165.8878631591797	-1097.814819335938	966.033203125	207.2513427734375	-997.1212768554688	997.564208984375	130.0205383300781	-1008.397277832031	1008.471801757812	-104.9295349121094	-1086.96728515625	518.9853515625	-101.6753616333008	-1107.513793945312	652.9000244140625	-142.22021484375	-1191.064208984375	42.67100524902344	-84.96136474609375	-1170.000732421875	286.9333801269531	-111.7109069824219	-974.43212890625	40.55942153930664	-14.19234752655029	-1033.64208984375	49.85591506958008	0.5704101920127869	-1067.082275390625	41.57846069335938	-101.4814300537109	-1261.442993164062	51.39110565185547	-34.55161666870117	-1094.941650390625	529.691162109375	166.1600341796875	-1074.81982421875	797.1917724609375	207.7245483398438	-1207.200805664062	46.83335494995117	152.953369140625	-1120.017700195312	407.4302673339844	169.0384826660156	-974.7763671875	45.58760452270508	114.6256713867188	-1037.806396484375	52.64412689208984	84.72552490234375	-1057.695678710938	44.86507797241211	177.0155334472656	-1260.642578125	47.00261688232422	107.0025787353516	
134	1.33	-1209.657348632812	1081.574096679688	106.2765121459961	-1217.058715820312	1068.960571289062	-57.4513053894043	-1218.4052734375	1129.492797851562	13.55273246765137	-999.9811401367188	1323.342041015625	9.957503318786621	-1246.779541015625	1273.661499023438	5.034684658050537	-1198.038208007812	1541.26806640625	-12.36432456970215	-1040.762817382812	1449.39208984375	0.7204432487487793	-1252.469970703125	1406.589111328125	70.04065704345703	-1214.033447265625	1496.6083984375	-109.4359283447266	-1110.232055664062	1502.262329101562	-181.8725128173828	-1134.7431640625	1371.448974609375	-253.4348297119141	-1121.608642578125	1151.579467773438	-268.7972412109375	-1175.402587890625	1140.43359375	-177.6366729736328	-1027.617919921875	902.851806640625	-206.1145324707031	-1104.396606445312	886.0961303710938	-247.4016265869141	-1106.016723632812	1036.302978515625	-270.573974609375	-995.0374755859375	722.2734985351562	-180.3957366943359	-1069.147094726562	796.526611328125	-243.4743194580078	-1004.900634765625	809.2639770507812	-215.1003112792969	-1129.50048828125	1531.627319335938	166.5161437988281	-1145.54833984375	1461.47216796875	238.2468109130859	-1175.443603515625	1191.146606445312	262.9003295898438	-1170.091918945312	1163.348876953125	166.5234680175781	-1043.240356445312	931.9655151367188	241.2401580810547	-1110.297607421875	918.4652099609375	303.2357482910156	-1162.282836914062	1115.594604492188	279.4365844726562	-1029.433715820312	751.1936645507812	225.7935791015625	-1008.727355957031	824.4839477539062	260.0249328613281	-1067.25146484375	819.6646728515625	307.3031005859375	-1144.896240234375	1725.963256835938	-72.38606262207031	-960.0812377929688	1735.410766601562	43.3917121887207	-964.4487915039062	1735.460693359375	-55.00691604614258	-1132.369140625	1723.400756835938	71.86289215087891	-1125.124877929688	961.3929443359375	-166.4788208007812	-1097.529174804688	966.1194458007812	206.6180419921875	-996.7685546875	997.58935546875	129.4644927978516	-1007.88037109375	1008.355224609375	-105.5302886962891	-1087.458984375	518.9398803710938	-102.3696517944336	-1107.908081054688	652.8770141601562	-142.726318359375	-1191.060302734375	42.69043350219727	-84.92531585693359	-1170.36376953125	286.9248962402344	-111.938362121582	-974.2905883789062	40.44179916381836	-14.19260692596436	-1033.560668945312	49.89142227172852	0.5302438735961914	-1067.068969726562	41.51646423339844	-101.5719146728516	-1261.4423828125	51.44865036010742	-34.5489616394043	-1095.088500976562	529.7535400390625	165.8648529052734	-1074.741088867188	797.3419799804688	207.1792449951172	-1207.166015625	46.88607025146484	152.9401550292969	-1120.07568359375	407.5469360351562	168.7656555175781	-974.7388916015625	45.58705139160156	114.6044921875	-1037.7744140625	52.6787109375	84.74114227294922	-1057.6748046875	44.88109970092773	176.9746246337891	-1260.59912109375	47.05421829223633	106.9989547729492	
135	1.34	-1209.170532226562	1081.83154296875	105.5506286621094	-1216.59716796875	1069.117797851562	-58.13840866088867	-1218.027587890625	1129.686401367188	12.78772640228271	-999.23974609375	1323.232666015625	9.16191577911377	-1246.13037109375	1273.848388671875	4.214765071868896	-1197.056640625	1541.402709960938	-13.3271369934082	-1039.9375	1449.315307617188	-0.1829759627580643	-1251.678833007812	1406.813720703125	69.13019561767578	-1213.110107421875	1496.689819335938	-110.3843154907227	-1109.260620117188	1502.190185546875	-182.8004455566406	-1133.94677734375	1371.404174804688	-254.3298645019531	-1121.24609375	1151.53125	-269.6848449707031	-1175.016967773438	1140.478637695312	-178.5023193359375	-1027.71923828125	902.63427734375	-206.9953918457031	-1104.45361328125	886	-248.2685546875	-1105.860473632812	1036.228271484375	-271.4624633789062	-995.2582397460938	722.1275634765625	-181.2437744140625	-1069.428588867188	796.3923950195312	-244.3588714599609	-1005.150390625	808.9859008789062	-216.0089721679688	-1128.58251953125	1531.754760742188	165.5252532958984	-1144.60791015625	1461.66259765625	237.3632965087891	-1174.684692382812	1191.350952148438	262.1317443847656	-1169.428466796875	1163.5224609375	165.7324829101562	-1042.65576171875	932.0595703125	240.4692687988281	-1109.720458984375	918.6453857421875	302.5093994140625	-1161.649047851562	1115.7919921875	278.6304321289062	-1028.8193359375	751.3167724609375	225.085205078125	-1008.262878417969	824.6116943359375	259.2877807617188	-1066.706298828125	819.8167114257812	306.5704345703125	-1142.980346679688	1725.947143554688	-74.17740631103516	-959.2861328125	1735.271728515625	43.32751846313477	-962.7080688476562	1735.08203125	-55.08112335205078	-1131.834716796875	1723.697021484375	70.19678497314453	-1124.692504882812	961.3065185546875	-167.0578765869141	-1097.188598632812	966.2159423828125	205.9949493408203	-996.4000854492188	997.6097412109375	128.8696594238281	-1007.364135742188	1008.225646972656	-106.1424942016602	-1088.1064453125	518.858154296875	-103.0847396850586	-1108.46826171875	652.84765625	-143.2720794677734	-1191.067260742188	42.69390106201172	-84.90805816650391	-1170.861572265625	286.9264831542969	-112.2093658447266	-974.1768798828125	40.35064697265625	-14.20698928833008	-1033.492431640625	49.92897796630859	0.480462521314621	-1067.059448242188	41.44918823242188	-101.6722030639648	-1261.44482421875	51.4911003112793	-34.55399322509766	-1095.250122070312	529.8071899414062	165.5794372558594	-1074.6826171875	797.4951782226562	206.6722259521484	-1207.11865234375	46.93598175048828	152.9379272460938	-1120.153198242188	407.65478515625	168.4871978759766	-974.7036743164062	45.58649826049805	114.5812072753906	-1037.738647460938	52.70663833618164	84.74014282226562	-1057.660888671875	44.89241409301758	176.9466094970703	-1260.547485351562	47.10681915283203	107.0011520385742	
